<?xml version="1.0" encoding="utf-8" standalone="no"?>
<!DOCTYPE svg PUBLIC "-//W3C//DTD SVG 1.1//EN"
  "http://www.w3.org/Graphics/SVG/1.1/DTD/svg11.dtd">
<!-- Created with matplotlib (https://matplotlib.org/) -->
<svg height="720pt" version="1.1" viewBox="0 0 1296 720" width="1296pt" xmlns="http://www.w3.org/2000/svg" xmlns:xlink="http://www.w3.org/1999/xlink">
 <defs>
  <style type="text/css">
*{stroke-linecap:butt;stroke-linejoin:round;}
  </style>
 </defs>
 <g id="figure_1">
  <g id="patch_1">
   <path d="M 0 720 
L 1296 720 
L 1296 0 
L 0 0 
z
" style="fill:none;"/>
  </g>
  <g id="axes_1">
   <g id="patch_2">
    <path d="M 162 630 
L 1166.4 630 
L 1166.4 86.4 
L 162 86.4 
z
" style="fill:none;"/>
   </g>
   <g id="matplotlib.axis_1">
    <g id="xtick_1">
     <g id="text_1">
      <!-- White -->
      <defs>
       <path d="M 25 10.203125 
L 25.203125 10.203125 
L 43 70.796875 
L 51.59375 70.796875 
L 69.40625 10.203125 
L 69.59375 10.203125 
L 86.40625 70.796875 
L 94.40625 70.796875 
L 73.5 0 
L 65.09375 0 
L 47.296875 60.59375 
L 47.09375 60.59375 
L 29.296875 0 
L 20.90625 0 
L 0 70.796875 
L 8 70.796875 
z
" id="Avenir-Book-87"/>
       <path d="M 7.203125 75.59375 
L 13.796875 75.59375 
L 13.796875 39.296875 
L 14 39.296875 
Q 15.09375 41.203125 16.796875 42.796875 
Q 18.5 44.40625 20.59375 45.546875 
Q 22.703125 46.703125 25.046875 47.34375 
Q 27.40625 48 29.703125 48 
Q 38.703125 48 43 43.25 
Q 47.296875 38.5 47.296875 29.703125 
L 47.296875 0 
L 40.703125 0 
L 40.703125 25.90625 
Q 40.703125 33.703125 38 37.84375 
Q 35.296875 42 28 42 
Q 27.5 42 25.203125 41.59375 
Q 22.90625 41.203125 20.34375 39.390625 
Q 17.796875 37.59375 15.796875 34 
Q 13.796875 30.40625 13.796875 24 
L 13.796875 0 
L 7.203125 0 
z
" id="Avenir-Book-104"/>
       <path d="M 16.796875 64.796875 
Q 16.796875 62.703125 15.296875 61.34375 
Q 13.796875 60 12 60 
Q 10.203125 60 8.703125 61.34375 
Q 7.203125 62.703125 7.203125 64.796875 
Q 7.203125 66.90625 8.703125 68.25 
Q 10.203125 69.59375 12 69.59375 
Q 13.796875 69.59375 15.296875 68.25 
Q 16.796875 66.90625 16.796875 64.796875 
z
M 15.296875 0 
L 8.703125 0 
L 8.703125 46.796875 
L 15.296875 46.796875 
z
" id="Avenir-Book-105"/>
       <path d="M 31.40625 40.796875 
L 17.90625 40.796875 
L 17.90625 13.203125 
Q 17.90625 10.59375 18.40625 8.9375 
Q 18.90625 7.296875 19.796875 6.390625 
Q 20.703125 5.5 21.953125 5.140625 
Q 23.203125 4.796875 24.703125 4.796875 
Q 26.40625 4.796875 28.203125 5.296875 
Q 30 5.796875 31.5 6.59375 
L 31.796875 0.5 
Q 28.09375 -1.203125 22.90625 -1.203125 
Q 21 -1.203125 18.953125 -0.703125 
Q 16.90625 -0.203125 15.203125 1.1875 
Q 13.5 2.59375 12.390625 5 
Q 11.296875 7.40625 11.296875 11.296875 
L 11.296875 40.796875 
L 1.40625 40.796875 
L 1.40625 46.796875 
L 11.296875 46.796875 
L 11.296875 60 
L 17.90625 60 
L 17.90625 46.796875 
L 31.40625 46.796875 
z
" id="Avenir-Book-116"/>
       <path d="M 43.59375 27 
Q 43.59375 33.703125 39.59375 37.84375 
Q 35.59375 42 28.40625 42 
Q 25.203125 42 22.203125 40.75 
Q 19.203125 39.5 16.953125 37.390625 
Q 14.703125 35.296875 13.34375 32.59375 
Q 12 29.90625 12 27 
z
M 11.796875 21.59375 
Q 12.09375 18.09375 13.5 15 
Q 14.90625 11.90625 17.203125 9.65625 
Q 19.5 7.40625 22.5 6.09375 
Q 25.5 4.796875 29 4.796875 
Q 34.296875 4.796875 38.140625 7.25 
Q 42 9.703125 44 12.90625 
L 49.09375 8.703125 
Q 44.90625 3.40625 39.84375 1.09375 
Q 34.796875 -1.203125 29 -1.203125 
Q 23.796875 -1.203125 19.34375 0.640625 
Q 14.90625 2.5 11.703125 5.796875 
Q 8.5 9.09375 6.640625 13.59375 
Q 4.796875 18.09375 4.796875 23.40625 
Q 4.796875 28.703125 6.59375 33.203125 
Q 8.40625 37.703125 11.59375 41 
Q 14.796875 44.296875 19.09375 46.140625 
Q 23.40625 48 28.40625 48 
Q 33.703125 48 37.890625 46.09375 
Q 42.09375 44.203125 44.9375 41.046875 
Q 47.796875 37.90625 49.296875 33.65625 
Q 50.796875 29.40625 50.796875 24.59375 
L 50.796875 21.59375 
z
" id="Avenir-Book-101"/>
      </defs>
      <g style="fill:#262626;" transform="translate(204.835201 656.130625)scale(0.22 -0.22)">
       <use xlink:href="#Avenir-Book-87"/>
       <use x="94.399994" xlink:href="#Avenir-Book-104"/>
       <use x="149.999985" xlink:href="#Avenir-Book-105"/>
       <use x="173.999969" xlink:href="#Avenir-Book-116"/>
       <use x="207.199966" xlink:href="#Avenir-Book-101"/>
      </g>
     </g>
    </g>
    <g id="xtick_2">
     <g id="text_2">
      <!-- Black -->
      <defs>
       <path d="M 16.796875 6.59375 
L 30.59375 6.59375 
Q 34.5 6.59375 37.890625 7.390625 
Q 41.296875 8.203125 43.796875 9.84375 
Q 46.296875 11.5 47.75 14 
Q 49.203125 16.5 49.203125 20 
Q 49.203125 27 44.703125 30.390625 
Q 40.203125 33.796875 31.5 33.796875 
L 16.796875 33.796875 
z
M 16.796875 39.796875 
L 31.296875 39.796875 
Q 33.90625 39.796875 36.453125 40.4375 
Q 39 41.09375 41.046875 42.59375 
Q 43.09375 44.09375 44.390625 46.4375 
Q 45.703125 48.796875 45.703125 52.203125 
Q 45.703125 53.296875 45.25 55.296875 
Q 44.796875 57.296875 43.25 59.296875 
Q 41.703125 61.296875 38.703125 62.75 
Q 35.703125 64.203125 30.59375 64.203125 
L 16.796875 64.203125 
z
M 9.59375 70.796875 
L 30.703125 70.796875 
Q 35.09375 70.796875 39.1875 69.890625 
Q 43.296875 69 46.5 66.890625 
Q 49.703125 64.796875 51.59375 61.390625 
Q 53.5 58 53.5 53 
Q 53.5 47.203125 50.25 43.046875 
Q 47 38.90625 41 37.5 
L 41 37.296875 
Q 48.5 36.703125 52.75 32.046875 
Q 57 27.40625 57 19.59375 
Q 57 17.90625 56.140625 14.59375 
Q 55.296875 11.296875 52.59375 8.046875 
Q 49.90625 4.796875 44.796875 2.390625 
Q 39.703125 0 31.203125 0 
L 9.59375 0 
z
" id="Avenir-Book-66"/>
       <path d="M 15.296875 0 
L 8.703125 0 
L 8.703125 75.59375 
L 15.296875 75.59375 
z
" id="Avenir-Book-108"/>
       <path d="M 33.796875 23.296875 
Q 31.296875 23.296875 27.546875 23.046875 
Q 23.796875 22.796875 20.34375 21.84375 
Q 16.90625 20.90625 14.453125 18.90625 
Q 12 16.90625 12 13.40625 
Q 12 11.09375 12.953125 9.4375 
Q 13.90625 7.796875 15.5 6.75 
Q 17.09375 5.703125 19.046875 5.25 
Q 21 4.796875 23 4.796875 
Q 26.59375 4.796875 29.25 6 
Q 31.90625 7.203125 33.703125 9.25 
Q 35.5 11.296875 36.34375 14.046875 
Q 37.203125 16.796875 37.203125 19.90625 
L 37.203125 23.296875 
z
M 37.203125 28.703125 
L 37.203125 29.90625 
Q 37.203125 42 25.203125 42 
Q 17 42 10.90625 36.5 
L 6.90625 41.203125 
Q 13.5 48 26.703125 48 
Q 30.09375 48 33.25 47 
Q 36.40625 46 38.703125 43.953125 
Q 41 41.90625 42.390625 38.796875 
Q 43.796875 35.703125 43.796875 31.40625 
L 43.796875 10.5 
Q 43.796875 7.796875 44.046875 4.84375 
Q 44.296875 1.90625 44.59375 0 
L 38.203125 0 
Q 37.90625 1.703125 37.75 3.703125 
Q 37.59375 5.703125 37.59375 7.59375 
L 37.40625 7.59375 
Q 34.5 2.90625 30.546875 0.84375 
Q 26.59375 -1.203125 20.90625 -1.203125 
Q 17.796875 -1.203125 14.890625 -0.34375 
Q 12 0.5 9.75 2.25 
Q 7.5 4 6.140625 6.546875 
Q 4.796875 9.09375 4.796875 12.5 
Q 4.796875 18.203125 7.75 21.453125 
Q 10.703125 24.703125 15.140625 26.296875 
Q 19.59375 27.90625 24.640625 28.296875 
Q 29.703125 28.703125 33.90625 28.703125 
z
" id="Avenir-Book-97"/>
       <path d="M 41.296875 35.796875 
Q 39.59375 38.40625 36.546875 40.203125 
Q 33.5 42 29.59375 42 
Q 25.5 42.09375 22.25 40.6875 
Q 19 39.296875 16.703125 36.796875 
Q 14.40625 34.296875 13.203125 30.84375 
Q 12 27.40625 12 23.40625 
Q 12 19.40625 13.203125 15.953125 
Q 14.40625 12.5 16.703125 10 
Q 19 7.5 22.25 6.09375 
Q 25.5 4.703125 29.59375 4.796875 
Q 33.5 4.796875 36.546875 6.59375 
Q 39.59375 8.40625 41.296875 11 
L 46.703125 6.90625 
Q 43.203125 2.796875 38.796875 0.84375 
Q 34.40625 -1.09375 29.59375 -1.203125 
Q 23.90625 -1.296875 19.296875 0.546875 
Q 14.703125 2.40625 11.453125 5.703125 
Q 8.203125 9 6.5 13.546875 
Q 4.796875 18.09375 4.796875 23.40625 
Q 4.796875 28.703125 6.5 33.25 
Q 8.203125 37.796875 11.453125 41.09375 
Q 14.703125 44.40625 19.296875 46.25 
Q 23.90625 48.09375 29.59375 48 
Q 34.40625 47.90625 38.796875 45.953125 
Q 43.203125 44 46.703125 39.90625 
z
" id="Avenir-Book-99"/>
       <path d="M 13.796875 25.703125 
L 35.90625 46.796875 
L 45.796875 46.796875 
L 22.5 25.40625 
L 48.296875 0 
L 38.09375 0 
L 13.796875 24.59375 
L 13.796875 0 
L 7.203125 0 
L 7.203125 75.59375 
L 13.796875 75.59375 
z
" id="Avenir-Book-107"/>
      </defs>
      <g style="fill:#262626;" transform="translate(351.344196 656.130625)scale(0.22 -0.22)">
       <use xlink:href="#Avenir-Book-66"/>
       <use x="62.999985" xlink:href="#Avenir-Book-108"/>
       <use x="86.999969" xlink:href="#Avenir-Book-97"/>
       <use x="138.899963" xlink:href="#Avenir-Book-99"/>
       <use x="187.09996" xlink:href="#Avenir-Book-107"/>
      </g>
     </g>
    </g>
    <g id="xtick_3">
     <g id="text_3">
      <!-- Hispanic -->
      <defs>
       <path d="M 9.59375 70.796875 
L 16.796875 70.796875 
L 16.796875 40.09375 
L 55.40625 40.09375 
L 55.40625 70.796875 
L 62.59375 70.796875 
L 62.59375 0 
L 55.40625 0 
L 55.40625 33.5 
L 16.796875 33.5 
L 16.796875 0 
L 9.59375 0 
z
" id="Avenir-Book-72"/>
       <path d="M 32 35.703125 
Q 30.5 38.59375 28 40.296875 
Q 25.5 42 21.90625 42 
Q 20.203125 42 18.453125 41.59375 
Q 16.703125 41.203125 15.296875 40.34375 
Q 13.90625 39.5 13.046875 38.203125 
Q 12.203125 36.90625 12.203125 35 
Q 12.203125 31.703125 14.5 30.203125 
Q 16.796875 28.703125 21.40625 27.59375 
L 28.09375 26 
Q 33 24.90625 36.25 21.546875 
Q 39.5 18.203125 39.5 13.203125 
Q 39.5 9.40625 37.953125 6.65625 
Q 36.40625 3.90625 33.84375 2.15625 
Q 31.296875 0.40625 28 -0.390625 
Q 24.703125 -1.203125 21.296875 -1.203125 
Q 15.90625 -1.203125 11.25 0.84375 
Q 6.59375 2.90625 3.296875 7.90625 
L 9 11.796875 
Q 11 8.59375 14.046875 6.6875 
Q 17.09375 4.796875 21.296875 4.796875 
Q 23.296875 4.796875 25.296875 5.25 
Q 27.296875 5.703125 28.84375 6.640625 
Q 30.40625 7.59375 31.34375 9.09375 
Q 32.296875 10.59375 32.296875 12.59375 
Q 32.296875 16.09375 29.6875 17.640625 
Q 27.09375 19.203125 23.40625 20.09375 
L 17 21.59375 
Q 15.796875 21.90625 13.75 22.59375 
Q 11.703125 23.296875 9.75 24.6875 
Q 7.796875 26.09375 6.390625 28.34375 
Q 5 30.59375 5 33.90625 
Q 5 37.5 6.453125 40.203125 
Q 7.90625 42.90625 10.34375 44.59375 
Q 12.796875 46.296875 15.890625 47.140625 
Q 19 48 22.296875 48 
Q 27.203125 48 31.390625 46.09375 
Q 35.59375 44.203125 37.90625 39.59375 
z
" id="Avenir-Book-115"/>
       <path d="M 49.90625 23.40625 
Q 49.90625 27.296875 48.65625 30.6875 
Q 47.40625 34.09375 45.09375 36.59375 
Q 42.796875 39.09375 39.546875 40.546875 
Q 36.296875 42 32.203125 42 
Q 28.09375 42 24.6875 40.546875 
Q 21.296875 39.09375 18.796875 36.59375 
Q 16.296875 34.09375 14.890625 30.6875 
Q 13.5 27.296875 13.5 23.40625 
Q 13.5 19.5 14.890625 16.09375 
Q 16.296875 12.703125 18.796875 10.203125 
Q 21.296875 7.703125 24.6875 6.25 
Q 28.09375 4.796875 32.203125 4.796875 
Q 36.296875 4.796875 39.546875 6.25 
Q 42.796875 7.703125 45.09375 10.203125 
Q 47.40625 12.703125 48.65625 16.09375 
Q 49.90625 19.5 49.90625 23.40625 
z
M 7.203125 46.796875 
L 13.796875 46.796875 
L 13.796875 39 
L 14 39 
Q 15.59375 41.40625 17.796875 43.09375 
Q 20 44.796875 22.390625 45.890625 
Q 24.796875 47 27.34375 47.5 
Q 29.90625 48 32.203125 48 
Q 37.703125 48 42.25 46.140625 
Q 46.796875 44.296875 50.09375 41 
Q 53.40625 37.703125 55.25 33.203125 
Q 57.09375 28.703125 57.09375 23.40625 
Q 57.09375 18.09375 55.25 13.59375 
Q 53.40625 9.09375 50.09375 5.796875 
Q 46.796875 2.5 42.25 0.640625 
Q 37.703125 -1.203125 32.203125 -1.203125 
Q 29.90625 -1.203125 27.34375 -0.703125 
Q 24.796875 -0.203125 22.390625 0.890625 
Q 20 2 17.796875 3.703125 
Q 15.59375 5.40625 14 7.796875 
L 13.796875 7.796875 
L 13.796875 -28.796875 
L 7.203125 -28.796875 
z
" id="Avenir-Book-112"/>
       <path d="M 13.5 46.796875 
Q 13.703125 44.90625 13.75 43.046875 
Q 13.796875 41.203125 13.796875 39.296875 
L 14 39.296875 
Q 15.09375 41.203125 16.796875 42.796875 
Q 18.5 44.40625 20.59375 45.546875 
Q 22.703125 46.703125 25.046875 47.34375 
Q 27.40625 48 29.703125 48 
Q 38.703125 48 43 43.25 
Q 47.296875 38.5 47.296875 29.703125 
L 47.296875 0 
L 40.703125 0 
L 40.703125 25.90625 
Q 40.703125 33.703125 38 37.84375 
Q 35.296875 42 28 42 
Q 27.5 42 25.203125 41.59375 
Q 22.90625 41.203125 20.34375 39.390625 
Q 17.796875 37.59375 15.796875 34 
Q 13.796875 30.40625 13.796875 24 
L 13.796875 0 
L 7.203125 0 
L 7.203125 36.5 
Q 7.203125 38.40625 7.046875 41.296875 
Q 6.90625 44.203125 6.703125 46.796875 
z
" id="Avenir-Book-110"/>
      </defs>
      <g style="fill:#262626;" transform="translate(478.958973 656.130625)scale(0.22 -0.22)">
       <use xlink:href="#Avenir-Book-72"/>
       <use x="72.199982" xlink:href="#Avenir-Book-105"/>
       <use x="96.199966" xlink:href="#Avenir-Book-115"/>
       <use x="138.799957" xlink:href="#Avenir-Book-112"/>
       <use x="199.899948" xlink:href="#Avenir-Book-97"/>
       <use x="251.799942" xlink:href="#Avenir-Book-110"/>
       <use x="307.399933" xlink:href="#Avenir-Book-105"/>
       <use x="331.399918" xlink:href="#Avenir-Book-99"/>
      </g>
     </g>
    </g>
    <g id="xtick_4">
     <g id="text_4">
      <!-- Not Reported -->
      <defs>
       <path d="M 60.796875 10.796875 
L 61 10.796875 
L 61 70.796875 
L 68.203125 70.796875 
L 68.203125 0 
L 59.203125 0 
L 17 60.59375 
L 16.796875 60.59375 
L 16.796875 0 
L 9.59375 0 
L 9.59375 70.796875 
L 18.59375 70.796875 
z
" id="Avenir-Book-78"/>
       <path d="M 47.296875 23.40625 
Q 47.296875 27.296875 46.046875 30.6875 
Q 44.796875 34.09375 42.5 36.59375 
Q 40.203125 39.09375 36.953125 40.546875 
Q 33.703125 42 29.59375 42 
Q 25.5 42 22.25 40.546875 
Q 19 39.09375 16.75 36.59375 
Q 14.5 34.09375 13.25 30.6875 
Q 12 27.296875 12 23.40625 
Q 12 19.5 13.25 16.09375 
Q 14.5 12.703125 16.75 10.203125 
Q 19 7.703125 22.25 6.25 
Q 25.5 4.796875 29.59375 4.796875 
Q 33.703125 4.796875 36.953125 6.25 
Q 40.203125 7.703125 42.5 10.203125 
Q 44.796875 12.703125 46.046875 16.09375 
Q 47.296875 19.5 47.296875 23.40625 
z
M 54.5 23.40625 
Q 54.5 18.09375 52.640625 13.59375 
Q 50.796875 9.09375 47.5 5.796875 
Q 44.203125 2.5 39.640625 0.640625 
Q 35.09375 -1.203125 29.59375 -1.203125 
Q 24.203125 -1.203125 19.640625 0.640625 
Q 15.09375 2.5 11.796875 5.796875 
Q 8.5 9.09375 6.640625 13.59375 
Q 4.796875 18.09375 4.796875 23.40625 
Q 4.796875 28.703125 6.640625 33.203125 
Q 8.5 37.703125 11.796875 41 
Q 15.09375 44.296875 19.640625 46.140625 
Q 24.203125 48 29.59375 48 
Q 35.09375 48 39.640625 46.140625 
Q 44.203125 44.296875 47.5 41 
Q 50.796875 37.703125 52.640625 33.203125 
Q 54.5 28.703125 54.5 23.40625 
z
" id="Avenir-Book-111"/>
       <path id="Avenir-Book-32"/>
       <path d="M 16.796875 39.5 
L 29.59375 39.5 
Q 34.40625 39.5 37.75 40.5 
Q 41.09375 41.5 43.09375 43.140625 
Q 45.09375 44.796875 46 47.046875 
Q 46.90625 49.296875 46.90625 51.90625 
Q 46.90625 54.40625 46 56.65625 
Q 45.09375 58.90625 43.09375 60.59375 
Q 41.09375 62.296875 37.75 63.25 
Q 34.40625 64.203125 29.59375 64.203125 
L 16.796875 64.203125 
z
M 16.796875 0 
L 9.59375 0 
L 9.59375 70.796875 
L 31.40625 70.796875 
Q 42.203125 70.796875 48.453125 66.09375 
Q 54.703125 61.40625 54.703125 51.90625 
Q 54.703125 44.5 50.046875 39.453125 
Q 45.40625 34.40625 36.59375 33.59375 
L 57 0 
L 48.203125 0 
L 28.796875 32.90625 
L 16.796875 32.90625 
z
" id="Avenir-Book-82"/>
       <path d="M 7.90625 32.203125 
Q 7.90625 35.296875 7.75 38.5 
Q 7.59375 41.703125 7.5 46.796875 
L 14 46.796875 
L 14 38.09375 
L 14.203125 38.09375 
Q 14.90625 40 16.203125 41.75 
Q 17.5 43.5 19.34375 44.890625 
Q 21.203125 46.296875 23.640625 47.140625 
Q 26.09375 48 29.203125 48 
Q 32 48 34.09375 47.40625 
L 32.796875 40.90625 
Q 31.5 41.40625 29 41.40625 
Q 25.203125 41.40625 22.5 39.953125 
Q 19.796875 38.5 18 36.25 
Q 16.203125 34 15.34375 31.390625 
Q 14.5 28.796875 14.5 26.40625 
L 14.5 0 
L 7.90625 0 
z
" id="Avenir-Book-114"/>
       <path d="M 11.203125 23.40625 
Q 11.203125 19.5 12.453125 16.09375 
Q 13.703125 12.703125 16 10.203125 
Q 18.296875 7.703125 21.546875 6.25 
Q 24.796875 4.796875 28.90625 4.796875 
Q 32.90625 4.796875 36.34375 6.25 
Q 39.796875 7.703125 42.296875 10.203125 
Q 44.796875 12.703125 46.1875 16.09375 
Q 47.59375 19.5 47.59375 23.40625 
Q 47.59375 27.296875 46.1875 30.6875 
Q 44.796875 34.09375 42.296875 36.59375 
Q 39.796875 39.09375 36.34375 40.546875 
Q 32.90625 42 28.90625 42 
Q 24.796875 42 21.546875 40.546875 
Q 18.296875 39.09375 16 36.59375 
Q 13.703125 34.09375 12.453125 30.6875 
Q 11.203125 27.296875 11.203125 23.40625 
z
M 53.90625 0 
L 47.296875 0 
L 47.296875 7.796875 
L 47.09375 7.796875 
Q 45.5 5.40625 43.296875 3.703125 
Q 41.09375 2 38.6875 0.890625 
Q 36.296875 -0.203125 33.75 -0.703125 
Q 31.203125 -1.203125 28.90625 -1.203125 
Q 23.40625 -1.203125 18.84375 0.640625 
Q 14.296875 2.5 11 5.796875 
Q 7.703125 9.09375 5.84375 13.59375 
Q 4 18.09375 4 23.40625 
Q 4 28.703125 5.84375 33.203125 
Q 7.703125 37.703125 11 41 
Q 14.296875 44.296875 18.84375 46.140625 
Q 23.40625 48 28.90625 48 
Q 31.203125 48 33.75 47.5 
Q 36.296875 47 38.6875 45.890625 
Q 41.09375 44.796875 43.296875 43.09375 
Q 45.5 41.40625 47.09375 39 
L 47.296875 39 
L 47.296875 75.59375 
L 53.90625 75.59375 
z
" id="Avenir-Book-100"/>
      </defs>
      <g style="fill:#262626;" transform="translate(596.388438 656.130625)scale(0.22 -0.22)">
       <use xlink:href="#Avenir-Book-78"/>
       <use x="77.799988" xlink:href="#Avenir-Book-111"/>
       <use x="137.099976" xlink:href="#Avenir-Book-116"/>
       <use x="170.299973" xlink:href="#Avenir-Book-32"/>
       <use x="198.09996" xlink:href="#Avenir-Book-82"/>
       <use x="257.399948" xlink:href="#Avenir-Book-101"/>
       <use x="312.999939" xlink:href="#Avenir-Book-112"/>
       <use x="374.09993" xlink:href="#Avenir-Book-111"/>
       <use x="433.399918" xlink:href="#Avenir-Book-114"/>
       <use x="466.599915" xlink:href="#Avenir-Book-116"/>
       <use x="499.799911" xlink:href="#Avenir-Book-101"/>
       <use x="555.399902" xlink:href="#Avenir-Book-100"/>
      </g>
     </g>
    </g>
    <g id="xtick_5">
     <g id="text_5">
      <!-- Asian -->
      <defs>
       <path d="M 18.90625 25.203125 
L 49.59375 25.203125 
L 34.296875 62.40625 
z
M 8.40625 0 
L 0 0 
L 30.796875 70.796875 
L 37.796875 70.796875 
L 68.59375 0 
L 60.203125 0 
L 52.40625 18.59375 
L 16.203125 18.59375 
z
" id="Avenir-Book-65"/>
      </defs>
      <g style="fill:#262626;" transform="translate(780.990089 656.130625)scale(0.22 -0.22)">
       <use xlink:href="#Avenir-Book-65"/>
       <use x="68.599991" xlink:href="#Avenir-Book-115"/>
       <use x="111.199982" xlink:href="#Avenir-Book-105"/>
       <use x="135.199966" xlink:href="#Avenir-Book-97"/>
       <use x="187.09996" xlink:href="#Avenir-Book-110"/>
      </g>
     </g>
    </g>
    <g id="xtick_6">
     <g id="text_6">
      <!-- Native American -->
      <defs>
       <path d="M 27.796875 0 
L 20.40625 0 
L 1.40625 46.796875 
L 9.296875 46.796875 
L 24.203125 7.40625 
L 24.40625 7.40625 
L 39.296875 46.796875 
L 46.796875 46.796875 
z
" id="Avenir-Book-118"/>
       <path d="M 7.203125 36.40625 
Q 7.203125 39 7.046875 41.59375 
Q 6.90625 44.203125 6.703125 46.796875 
L 13.796875 46.796875 
L 13.796875 39.703125 
L 14 39.703125 
Q 16.40625 43.796875 20.65625 45.890625 
Q 24.90625 48 29.09375 48 
Q 31 48 33.140625 47.59375 
Q 35.296875 47.203125 37.296875 46.140625 
Q 39.296875 45.09375 41.046875 43.1875 
Q 42.796875 41.296875 44 38.296875 
Q 46 42.796875 50.34375 45.390625 
Q 54.703125 48 59.40625 48 
Q 68.40625 48 72.703125 43.25 
Q 77 38.5 77 29.703125 
L 77 0 
L 70.40625 0 
L 70.40625 27.296875 
Q 70.40625 34.40625 67.90625 38.203125 
Q 65.40625 42 58.59375 42 
Q 54.90625 42 52.40625 40.546875 
Q 49.90625 39.09375 48.34375 36.6875 
Q 46.796875 34.296875 46.09375 31.25 
Q 45.40625 28.203125 45.40625 24.90625 
L 45.40625 0 
L 38.796875 0 
L 38.796875 27.296875 
Q 38.796875 34.40625 36.296875 38.203125 
Q 33.796875 42 27 42 
Q 26.40625 42 24.25 41.59375 
Q 22.09375 41.203125 19.796875 39.390625 
Q 17.5 37.59375 15.640625 34 
Q 13.796875 30.40625 13.796875 24 
L 13.796875 0 
L 7.203125 0 
z
" id="Avenir-Book-109"/>
      </defs>
      <g style="fill:#262626;" transform="translate(869.683772 656.130625)scale(0.22 -0.22)">
       <use xlink:href="#Avenir-Book-78"/>
       <use x="77.799988" xlink:href="#Avenir-Book-97"/>
       <use x="129.699982" xlink:href="#Avenir-Book-116"/>
       <use x="162.899979" xlink:href="#Avenir-Book-105"/>
       <use x="186.899963" xlink:href="#Avenir-Book-118"/>
       <use x="235.09996" xlink:href="#Avenir-Book-101"/>
       <use x="290.699951" xlink:href="#Avenir-Book-32"/>
       <use x="318.499939" xlink:href="#Avenir-Book-65"/>
       <use x="387.09993" xlink:href="#Avenir-Book-109"/>
       <use x="472.299911" xlink:href="#Avenir-Book-101"/>
       <use x="527.899902" xlink:href="#Avenir-Book-114"/>
       <use x="561.099899" xlink:href="#Avenir-Book-105"/>
       <use x="585.099884" xlink:href="#Avenir-Book-99"/>
       <use x="633.299881" xlink:href="#Avenir-Book-97"/>
       <use x="685.199875" xlink:href="#Avenir-Book-110"/>
      </g>
     </g>
    </g>
    <g id="xtick_7">
     <g id="text_7">
      <!-- Other -->
      <defs>
       <path d="M 70.796875 35.40625 
Q 70.796875 41.5 68.796875 47.046875 
Q 66.796875 52.59375 63.046875 56.796875 
Q 59.296875 61 53.890625 63.5 
Q 48.5 66 41.703125 66 
Q 34.90625 66 29.5 63.5 
Q 24.09375 61 20.34375 56.796875 
Q 16.59375 52.59375 14.59375 47.046875 
Q 12.59375 41.5 12.59375 35.40625 
Q 12.59375 29.296875 14.59375 23.75 
Q 16.59375 18.203125 20.34375 14 
Q 24.09375 9.796875 29.5 7.296875 
Q 34.90625 4.796875 41.703125 4.796875 
Q 48.5 4.796875 53.890625 7.296875 
Q 59.296875 9.796875 63.046875 14 
Q 66.796875 18.203125 68.796875 23.75 
Q 70.796875 29.296875 70.796875 35.40625 
z
M 78.59375 35.40625 
Q 78.59375 27.296875 75.796875 20.5 
Q 73 13.703125 68.046875 8.75 
Q 63.09375 3.796875 56.34375 1 
Q 49.59375 -1.796875 41.703125 -1.796875 
Q 33.796875 -1.796875 27.046875 1 
Q 20.296875 3.796875 15.34375 8.75 
Q 10.40625 13.703125 7.59375 20.5 
Q 4.796875 27.296875 4.796875 35.40625 
Q 4.796875 43.5 7.59375 50.296875 
Q 10.40625 57.09375 15.34375 62.046875 
Q 20.296875 67 27.046875 69.796875 
Q 33.796875 72.59375 41.703125 72.59375 
Q 49.59375 72.59375 56.34375 69.796875 
Q 63.09375 67 68.046875 62.046875 
Q 73 57.09375 75.796875 50.296875 
Q 78.59375 43.5 78.59375 35.40625 
z
" id="Avenir-Book-79"/>
      </defs>
      <g style="fill:#262626;" transform="translate(1065.947143 656.130625)scale(0.22 -0.22)">
       <use xlink:href="#Avenir-Book-79"/>
       <use x="83.399994" xlink:href="#Avenir-Book-116"/>
       <use x="116.599991" xlink:href="#Avenir-Book-104"/>
       <use x="172.199982" xlink:href="#Avenir-Book-101"/>
       <use x="227.799973" xlink:href="#Avenir-Book-114"/>
      </g>
     </g>
    </g>
   </g>
   <g id="matplotlib.axis_2">
    <g id="ytick_1">
     <g id="line2d_1">
      <path clip-path="url(#pf23c3f0f4b)" d="M 162 630 
L 1166.4 630 
" style="fill:none;stroke:#cccccc;stroke-linecap:round;"/>
     </g>
     <g id="text_8">
      <!-- 0 -->
      <defs>
       <path d="M 27.796875 65.40625 
Q 22 65.40625 18.640625 62.296875 
Q 15.296875 59.203125 13.59375 54.59375 
Q 11.90625 50 11.453125 44.796875 
Q 11 39.59375 11 35.40625 
Q 11 31.203125 11.453125 26 
Q 11.90625 20.796875 13.59375 16.1875 
Q 15.296875 11.59375 18.640625 8.5 
Q 22 5.40625 27.796875 5.40625 
Q 33.59375 5.40625 36.9375 8.5 
Q 40.296875 11.59375 42 16.1875 
Q 43.703125 20.796875 44.140625 26 
Q 44.59375 31.203125 44.59375 35.40625 
Q 44.59375 39.59375 44.140625 44.796875 
Q 43.703125 50 42 54.59375 
Q 40.296875 59.203125 36.9375 62.296875 
Q 33.59375 65.40625 27.796875 65.40625 
z
M 27.796875 72 
Q 35.40625 72 40.09375 68.5 
Q 44.796875 65 47.390625 59.59375 
Q 50 54.203125 50.890625 47.75 
Q 51.796875 41.296875 51.796875 35.40625 
Q 51.796875 29.5 50.890625 23.046875 
Q 50 16.59375 47.390625 11.1875 
Q 44.796875 5.796875 40.09375 2.296875 
Q 35.40625 -1.203125 27.796875 -1.203125 
Q 20.203125 -1.203125 15.5 2.296875 
Q 10.796875 5.796875 8.1875 11.1875 
Q 5.59375 16.59375 4.6875 23.046875 
Q 3.796875 29.5 3.796875 35.40625 
Q 3.796875 41.296875 4.6875 47.75 
Q 5.59375 54.203125 8.1875 59.59375 
Q 10.796875 65 15.5 68.5 
Q 20.203125 72 27.796875 72 
z
" id="Avenir-Book-48"/>
      </defs>
      <g style="fill:#262626;" transform="translate(140.269375 638.315313)scale(0.22 -0.22)">
       <use xlink:href="#Avenir-Book-48"/>
      </g>
     </g>
    </g>
    <g id="ytick_2">
     <g id="line2d_2">
      <path clip-path="url(#pf23c3f0f4b)" d="M 162 565.767458 
L 1166.4 565.767458 
" style="fill:none;stroke:#cccccc;stroke-linecap:round;"/>
     </g>
     <g id="text_9">
      <!-- 50 -->
      <defs>
       <path d="M 46.5 64.203125 
L 17.5 64.203125 
L 17.09375 42.90625 
Q 19.40625 43.796875 21.796875 44.1875 
Q 24.203125 44.59375 26.59375 44.59375 
Q 31.59375 44.59375 35.6875 42.890625 
Q 39.796875 41.203125 42.75 38.140625 
Q 45.703125 35.09375 47.34375 30.9375 
Q 49 26.796875 49 21.90625 
Q 49 16.796875 47.203125 12.546875 
Q 45.40625 8.296875 42.203125 5.25 
Q 39 2.203125 34.640625 0.5 
Q 30.296875 -1.203125 25.203125 -1.203125 
Q 18.5 -1.203125 13.09375 2 
Q 7.703125 5.203125 4.796875 11.40625 
L 11.90625 14.5 
Q 13.90625 10.296875 17.5 7.84375 
Q 21.09375 5.40625 25.796875 5.40625 
Q 29.203125 5.40625 32.09375 6.65625 
Q 35 7.90625 37.140625 10 
Q 39.296875 12.09375 40.546875 15 
Q 41.796875 17.90625 41.796875 21.203125 
Q 41.796875 24.90625 40.5 28 
Q 39.203125 31.09375 36.890625 33.34375 
Q 34.59375 35.59375 31.390625 36.796875 
Q 28.203125 38 24.40625 38 
Q 20.59375 38 16.84375 36.953125 
Q 13.09375 35.90625 9.703125 34.09375 
L 10.40625 70.796875 
L 46.5 70.796875 
z
" id="Avenir-Book-53"/>
      </defs>
      <g style="fill:#262626;" transform="translate(128.03875 574.082771)scale(0.22 -0.22)">
       <use xlink:href="#Avenir-Book-53"/>
       <use x="55.599991" xlink:href="#Avenir-Book-48"/>
      </g>
     </g>
    </g>
    <g id="ytick_3">
     <g id="line2d_3">
      <path clip-path="url(#pf23c3f0f4b)" d="M 162 501.534917 
L 1166.4 501.534917 
" style="fill:none;stroke:#cccccc;stroke-linecap:round;"/>
     </g>
     <g id="text_10">
      <!-- 100 -->
      <defs>
       <path d="M 34.796875 0 
L 27.59375 0 
L 27.59375 61.796875 
L 14.90625 50.59375 
L 10.40625 56 
L 28.40625 70.796875 
L 34.796875 70.796875 
z
" id="Avenir-Book-49"/>
      </defs>
      <g style="fill:#262626;" transform="translate(115.808125 509.850229)scale(0.22 -0.22)">
       <use xlink:href="#Avenir-Book-49"/>
       <use x="55.599991" xlink:href="#Avenir-Book-48"/>
       <use x="111.199982" xlink:href="#Avenir-Book-48"/>
      </g>
     </g>
    </g>
    <g id="ytick_4">
     <g id="line2d_4">
      <path clip-path="url(#pf23c3f0f4b)" d="M 162 437.302375 
L 1166.4 437.302375 
" style="fill:none;stroke:#cccccc;stroke-linecap:round;"/>
     </g>
     <g id="text_11">
      <!-- 150 -->
      <g style="fill:#262626;" transform="translate(115.808125 445.617688)scale(0.22 -0.22)">
       <use xlink:href="#Avenir-Book-49"/>
       <use x="55.599991" xlink:href="#Avenir-Book-53"/>
       <use x="111.199982" xlink:href="#Avenir-Book-48"/>
      </g>
     </g>
    </g>
    <g id="ytick_5">
     <g id="line2d_5">
      <path clip-path="url(#pf23c3f0f4b)" d="M 162 373.069833 
L 1166.4 373.069833 
" style="fill:none;stroke:#cccccc;stroke-linecap:round;"/>
     </g>
     <g id="text_12">
      <!-- 200 -->
      <defs>
       <path d="M 49.796875 0 
L 4.796875 0 
L 4.796875 8.296875 
L 33 37 
Q 34.59375 38.59375 36.1875 40.390625 
Q 37.796875 42.203125 39.09375 44.203125 
Q 40.40625 46.203125 41.203125 48.390625 
Q 42 50.59375 42 53 
Q 42 55.90625 40.953125 58.203125 
Q 39.90625 60.5 38 62.09375 
Q 36.09375 63.703125 33.59375 64.546875 
Q 31.09375 65.40625 28.296875 65.40625 
Q 22.90625 65.40625 19.09375 62.40625 
Q 15.296875 59.40625 14.203125 54.296875 
L 6.59375 55.09375 
Q 8.09375 63 13.84375 67.5 
Q 19.59375 72 27.796875 72 
Q 32.09375 72 35.9375 70.84375 
Q 39.796875 69.703125 42.75 67.390625 
Q 45.703125 65.09375 47.453125 61.640625 
Q 49.203125 58.203125 49.203125 53.59375 
Q 49.203125 49.5 47.953125 46.09375 
Q 46.703125 42.703125 44.703125 39.703125 
Q 42.703125 36.703125 40.140625 34 
Q 37.59375 31.296875 34.90625 28.703125 
L 12.59375 6.59375 
L 49.796875 6.59375 
z
" id="Avenir-Book-50"/>
      </defs>
      <g style="fill:#262626;" transform="translate(115.808125 381.385146)scale(0.22 -0.22)">
       <use xlink:href="#Avenir-Book-50"/>
       <use x="55.599991" xlink:href="#Avenir-Book-48"/>
       <use x="111.199982" xlink:href="#Avenir-Book-48"/>
      </g>
     </g>
    </g>
    <g id="ytick_6">
     <g id="line2d_6">
      <path clip-path="url(#pf23c3f0f4b)" d="M 162 308.837292 
L 1166.4 308.837292 
" style="fill:none;stroke:#cccccc;stroke-linecap:round;"/>
     </g>
     <g id="text_13">
      <!-- 250 -->
      <g style="fill:#262626;" transform="translate(115.808125 317.152604)scale(0.22 -0.22)">
       <use xlink:href="#Avenir-Book-50"/>
       <use x="55.599991" xlink:href="#Avenir-Book-53"/>
       <use x="111.199982" xlink:href="#Avenir-Book-48"/>
      </g>
     </g>
    </g>
    <g id="ytick_7">
     <g id="line2d_7">
      <path clip-path="url(#pf23c3f0f4b)" d="M 162 244.60475 
L 1166.4 244.60475 
" style="fill:none;stroke:#cccccc;stroke-linecap:round;"/>
     </g>
     <g id="text_14">
      <!-- 300 -->
      <defs>
       <path d="M 20.40625 40.40625 
L 24.09375 40.40625 
Q 27.203125 40.40625 30.046875 41.09375 
Q 32.90625 41.796875 35 43.34375 
Q 37.09375 44.90625 38.34375 47.40625 
Q 39.59375 49.90625 39.59375 53.40625 
Q 39.59375 59.09375 36.140625 62.25 
Q 32.703125 65.40625 26.5 65.40625 
Q 22 65.40625 18.59375 63.40625 
Q 15.203125 61.40625 13 57.59375 
L 6.703125 60.796875 
Q 9.90625 66.5 14.84375 69.25 
Q 19.796875 72 26.296875 72 
Q 30.5 72 34.203125 70.796875 
Q 37.90625 69.59375 40.703125 67.25 
Q 43.5 64.90625 45.140625 61.453125 
Q 46.796875 58 46.796875 53.59375 
Q 46.796875 50.703125 45.84375 48.09375 
Q 44.90625 45.5 43.25 43.390625 
Q 41.59375 41.296875 39.390625 39.75 
Q 37.203125 38.203125 34.796875 37.40625 
L 35.09375 37.203125 
Q 38.09375 36.59375 40.59375 34.9375 
Q 43.09375 33.296875 44.890625 30.890625 
Q 46.703125 28.5 47.703125 25.5 
Q 48.703125 22.5 48.703125 19.203125 
Q 48.703125 14.296875 46.890625 10.5 
Q 45.09375 6.703125 42 4.09375 
Q 38.90625 1.5 34.796875 0.140625 
Q 30.703125 -1.203125 26.09375 -1.203125 
Q 18.296875 -1.203125 12.5 2.1875 
Q 6.703125 5.59375 3.796875 13.09375 
L 11.40625 15.40625 
Q 13.203125 10.296875 16.75 7.84375 
Q 20.296875 5.40625 26.703125 5.40625 
Q 29.703125 5.40625 32.390625 6.40625 
Q 35.09375 7.40625 37.140625 9.25 
Q 39.203125 11.09375 40.34375 13.6875 
Q 41.5 16.296875 41.5 19.40625 
Q 41.5 23.40625 40 26.15625 
Q 38.5 28.90625 36 30.59375 
Q 33.5 32.296875 30.25 33.046875 
Q 27 33.796875 23.5 33.796875 
L 20.40625 33.796875 
z
" id="Avenir-Book-51"/>
      </defs>
      <g style="fill:#262626;" transform="translate(115.808125 252.920063)scale(0.22 -0.22)">
       <use xlink:href="#Avenir-Book-51"/>
       <use x="55.599991" xlink:href="#Avenir-Book-48"/>
       <use x="111.199982" xlink:href="#Avenir-Book-48"/>
      </g>
     </g>
    </g>
    <g id="ytick_8">
     <g id="line2d_8">
      <path clip-path="url(#pf23c3f0f4b)" d="M 162 180.372208 
L 1166.4 180.372208 
" style="fill:none;stroke:#cccccc;stroke-linecap:round;"/>
     </g>
     <g id="text_15">
      <!-- 350 -->
      <g style="fill:#262626;" transform="translate(115.808125 188.687521)scale(0.22 -0.22)">
       <use xlink:href="#Avenir-Book-51"/>
       <use x="55.599991" xlink:href="#Avenir-Book-53"/>
       <use x="111.199982" xlink:href="#Avenir-Book-48"/>
      </g>
     </g>
    </g>
    <g id="ytick_9">
     <g id="line2d_9">
      <path clip-path="url(#pf23c3f0f4b)" d="M 162 116.139667 
L 1166.4 116.139667 
" style="fill:none;stroke:#cccccc;stroke-linecap:round;"/>
     </g>
     <g id="text_16">
      <!-- 400 -->
      <defs>
       <path d="M 34.40625 63.59375 
L 34.203125 63.59375 
L 9.796875 23.40625 
L 34.40625 23.40625 
z
M 41.59375 23.40625 
L 51.796875 23.40625 
L 51.796875 16.796875 
L 41.59375 16.796875 
L 41.59375 0 
L 34.40625 0 
L 34.40625 16.796875 
L 3.796875 16.796875 
L 3.796875 25 
L 32.40625 70.796875 
L 41.59375 70.796875 
z
" id="Avenir-Book-52"/>
      </defs>
      <g style="fill:#262626;" transform="translate(115.808125 124.454979)scale(0.22 -0.22)">
       <use xlink:href="#Avenir-Book-52"/>
       <use x="55.599991" xlink:href="#Avenir-Book-48"/>
       <use x="111.199982" xlink:href="#Avenir-Book-48"/>
      </g>
     </g>
    </g>
    <g id="text_17">
     <!-- Number of Police Shooting Victims -->
     <defs>
      <path d="M 41 0 
Q 40.796875 1.90625 40.75 3.75 
Q 40.703125 5.59375 40.703125 7.5 
L 40.5 7.5 
Q 39.40625 5.59375 37.703125 4 
Q 36 2.40625 33.890625 1.25 
Q 31.796875 0.09375 29.4375 -0.546875 
Q 27.09375 -1.203125 24.796875 -1.203125 
Q 15.796875 -1.203125 11.5 3.546875 
Q 7.203125 8.296875 7.203125 17.09375 
L 7.203125 46.796875 
L 13.796875 46.796875 
L 13.796875 20.90625 
Q 13.796875 17 14.390625 14 
Q 15 11 16.453125 8.953125 
Q 17.90625 6.90625 20.34375 5.84375 
Q 22.796875 4.796875 26.5 4.796875 
Q 27 4.796875 29.296875 5.1875 
Q 31.59375 5.59375 34.140625 7.390625 
Q 36.703125 9.203125 38.703125 12.796875 
Q 40.703125 16.40625 40.703125 22.796875 
L 40.703125 46.796875 
L 47.296875 46.796875 
L 47.296875 10.296875 
Q 47.296875 8.40625 47.4375 5.5 
Q 47.59375 2.59375 47.796875 0 
z
" id="Avenir-Book-117"/>
      <path d="M 49.90625 23.40625 
Q 49.90625 27.296875 48.65625 30.6875 
Q 47.40625 34.09375 45.09375 36.59375 
Q 42.796875 39.09375 39.546875 40.546875 
Q 36.296875 42 32.203125 42 
Q 28.09375 42 24.6875 40.546875 
Q 21.296875 39.09375 18.796875 36.59375 
Q 16.296875 34.09375 14.890625 30.6875 
Q 13.5 27.296875 13.5 23.40625 
Q 13.5 19.5 14.890625 16.09375 
Q 16.296875 12.703125 18.796875 10.203125 
Q 21.296875 7.703125 24.6875 6.25 
Q 28.09375 4.796875 32.203125 4.796875 
Q 36.296875 4.796875 39.546875 6.25 
Q 42.796875 7.703125 45.09375 10.203125 
Q 47.40625 12.703125 48.65625 16.09375 
Q 49.90625 19.5 49.90625 23.40625 
z
M 7.203125 75.59375 
L 13.796875 75.59375 
L 13.796875 39 
L 14 39 
Q 15.59375 41.40625 17.796875 43.09375 
Q 20 44.796875 22.390625 45.890625 
Q 24.796875 47 27.34375 47.5 
Q 29.90625 48 32.203125 48 
Q 37.703125 48 42.25 46.140625 
Q 46.796875 44.296875 50.09375 41 
Q 53.40625 37.703125 55.25 33.203125 
Q 57.09375 28.703125 57.09375 23.40625 
Q 57.09375 18.09375 55.25 13.59375 
Q 53.40625 9.09375 50.09375 5.796875 
Q 46.796875 2.5 42.25 0.640625 
Q 37.703125 -1.203125 32.203125 -1.203125 
Q 29.90625 -1.203125 27.34375 -0.703125 
Q 24.796875 -0.203125 22.390625 0.890625 
Q 20 2 17.796875 3.703125 
Q 15.59375 5.40625 14 7.796875 
L 13.796875 7.796875 
L 13.796875 0 
L 7.203125 0 
z
" id="Avenir-Book-98"/>
      <path d="M 29 40.796875 
L 17.90625 40.796875 
L 17.90625 0 
L 11.296875 0 
L 11.296875 40.796875 
L 1.40625 40.796875 
L 1.40625 46.796875 
L 11.296875 46.796875 
L 11.296875 59.59375 
Q 11.296875 68.90625 15.59375 72.84375 
Q 19.90625 76.796875 27 76.796875 
Q 28.40625 76.796875 29.84375 76.59375 
Q 31.296875 76.40625 32.703125 76.09375 
L 31.5 70.09375 
Q 30.296875 70.40625 29 70.59375 
Q 27.703125 70.796875 26.40625 70.796875 
Q 23.703125 70.796875 22 69.890625 
Q 20.296875 69 19.390625 67.34375 
Q 18.5 65.703125 18.203125 63.5 
Q 17.90625 61.296875 17.90625 58.796875 
L 17.90625 46.796875 
L 29 46.796875 
z
" id="Avenir-Book-102"/>
      <path d="M 16.796875 39.5 
L 28.40625 39.5 
Q 33.203125 39.5 36.546875 40.5 
Q 39.90625 41.5 41.90625 43.140625 
Q 43.90625 44.796875 44.796875 47.046875 
Q 45.703125 49.296875 45.703125 51.90625 
Q 45.703125 54.40625 44.796875 56.65625 
Q 43.90625 58.90625 41.90625 60.59375 
Q 39.90625 62.296875 36.546875 63.25 
Q 33.203125 64.203125 28.40625 64.203125 
L 16.796875 64.203125 
z
M 9.59375 70.796875 
L 30.203125 70.796875 
Q 41 70.796875 47.25 66.09375 
Q 53.5 61.40625 53.5 51.90625 
Q 53.5 42.40625 47.25 37.65625 
Q 41 32.90625 30.203125 32.90625 
L 16.796875 32.90625 
L 16.796875 0 
L 9.59375 0 
z
" id="Avenir-Book-80"/>
      <path d="M 43.09375 59.09375 
Q 38.40625 66 29.40625 66 
Q 26.59375 66 23.890625 65.25 
Q 21.203125 64.5 19.046875 62.953125 
Q 16.90625 61.40625 15.59375 58.953125 
Q 14.296875 56.5 14.296875 53.203125 
Q 14.296875 48.40625 17 45.75 
Q 19.703125 43.09375 23.703125 41.390625 
Q 27.703125 39.703125 32.453125 38.34375 
Q 37.203125 37 41.203125 34.75 
Q 45.203125 32.5 47.890625 28.796875 
Q 50.59375 25.09375 50.59375 18.703125 
Q 50.59375 13.90625 48.546875 10.046875 
Q 46.5 6.203125 43.140625 3.59375 
Q 39.796875 1 35.640625 -0.390625 
Q 31.5 -1.796875 27.296875 -1.796875 
Q 20.796875 -1.796875 14.9375 0.640625 
Q 9.09375 3.09375 5 8.703125 
L 11.5 13.40625 
Q 13.796875 9.5 17.890625 7.140625 
Q 22 4.796875 27.59375 4.796875 
Q 30.296875 4.796875 33 5.640625 
Q 35.703125 6.5 37.84375 8.140625 
Q 40 9.796875 41.390625 12.1875 
Q 42.796875 14.59375 42.796875 17.703125 
Q 42.796875 21.40625 41.25 23.84375 
Q 39.703125 26.296875 37.140625 27.9375 
Q 34.59375 29.59375 31.34375 30.6875 
Q 28.09375 31.796875 24.640625 32.890625 
Q 21.203125 34 17.953125 35.390625 
Q 14.703125 36.796875 12.140625 38.9375 
Q 9.59375 41.09375 8.046875 44.34375 
Q 6.5 47.59375 6.5 52.5 
Q 6.5 57.59375 8.453125 61.390625 
Q 10.40625 65.203125 13.65625 67.703125 
Q 16.90625 70.203125 21 71.390625 
Q 25.09375 72.59375 29.40625 72.59375 
Q 35.40625 72.59375 40.296875 70.6875 
Q 45.203125 68.796875 49.40625 64 
z
" id="Avenir-Book-83"/>
      <path d="M 12 24 
Q 12 20.296875 13.34375 17.046875 
Q 14.703125 13.796875 17.046875 11.34375 
Q 19.40625 8.90625 22.546875 7.453125 
Q 25.703125 6 29.40625 6 
Q 33 6 36.25 7.296875 
Q 39.5 8.59375 42 10.9375 
Q 44.5 13.296875 45.84375 16.59375 
Q 47.203125 19.90625 47.09375 24 
Q 47.09375 27.703125 45.890625 30.953125 
Q 44.703125 34.203125 42.390625 36.640625 
Q 40.09375 39.09375 36.796875 40.546875 
Q 33.5 42 29.40625 42 
Q 25.703125 42 22.546875 40.546875 
Q 19.40625 39.09375 17.046875 36.640625 
Q 14.703125 34.203125 13.34375 30.953125 
Q 12 27.703125 12 24 
z
M 10.796875 -9.40625 
Q 13.703125 -13.296875 18.34375 -15.640625 
Q 23 -18 28.703125 -18 
Q 33.703125 -18 37.203125 -16.546875 
Q 40.703125 -15.09375 42.84375 -12.59375 
Q 45 -10.09375 45.953125 -6.75 
Q 46.90625 -3.40625 46.90625 0.40625 
L 46.90625 8.796875 
L 46.703125 8.796875 
Q 43.5 4 38.890625 2 
Q 34.296875 0 29.203125 0 
Q 24.09375 0 19.640625 1.796875 
Q 15.203125 3.59375 11.890625 6.75 
Q 8.59375 9.90625 6.6875 14.296875 
Q 4.796875 18.703125 4.796875 23.796875 
Q 4.796875 28.90625 6.59375 33.296875 
Q 8.40625 37.703125 11.546875 41 
Q 14.703125 44.296875 19.046875 46.140625 
Q 23.40625 48 28.59375 48 
Q 30.703125 48 33.046875 47.59375 
Q 35.40625 47.203125 37.75 46.203125 
Q 40.09375 45.203125 42.390625 43.453125 
Q 44.703125 41.703125 46.703125 39 
L 46.90625 39 
L 46.90625 46.796875 
L 53.5 46.796875 
L 53.5 0.40625 
Q 53.5 -3.40625 52.546875 -7.703125 
Q 51.59375 -12 48.84375 -15.59375 
Q 46.09375 -19.203125 41.1875 -21.59375 
Q 36.296875 -24 28.40625 -24 
Q 21.40625 -24 15.90625 -21.703125 
Q 10.40625 -19.40625 5.90625 -14.59375 
z
" id="Avenir-Book-103"/>
      <path d="M 30.203125 10.796875 
L 30.40625 10.796875 
L 53.59375 70.796875 
L 61.40625 70.796875 
L 33.796875 0 
L 26.59375 0 
L -0.296875 70.796875 
L 7.703125 70.796875 
z
" id="Avenir-Book-86"/>
     </defs>
     <g style="fill:#262626;" transform="translate(88.896875 545.28375)rotate(-90)scale(0.24 -0.24)">
      <use xlink:href="#Avenir-Book-78"/>
      <use x="77.799988" xlink:href="#Avenir-Book-117"/>
      <use x="133.399979" xlink:href="#Avenir-Book-109"/>
      <use x="218.59996" xlink:href="#Avenir-Book-98"/>
      <use x="279.699951" xlink:href="#Avenir-Book-101"/>
      <use x="335.299942" xlink:href="#Avenir-Book-114"/>
      <use x="368.499939" xlink:href="#Avenir-Book-32"/>
      <use x="396.299927" xlink:href="#Avenir-Book-111"/>
      <use x="455.599915" xlink:href="#Avenir-Book-102"/>
      <use x="485.199905" xlink:href="#Avenir-Book-32"/>
      <use x="512.999893" xlink:href="#Avenir-Book-80"/>
      <use x="570.399887" xlink:href="#Avenir-Book-111"/>
      <use x="629.699875" xlink:href="#Avenir-Book-108"/>
      <use x="653.69986" xlink:href="#Avenir-Book-105"/>
      <use x="677.699844" xlink:href="#Avenir-Book-99"/>
      <use x="725.899841" xlink:href="#Avenir-Book-101"/>
      <use x="781.499832" xlink:href="#Avenir-Book-32"/>
      <use x="809.29982" xlink:href="#Avenir-Book-83"/>
      <use x="864.899811" xlink:href="#Avenir-Book-104"/>
      <use x="920.499802" xlink:href="#Avenir-Book-111"/>
      <use x="979.799789" xlink:href="#Avenir-Book-111"/>
      <use x="1039.099777" xlink:href="#Avenir-Book-116"/>
      <use x="1072.299774" xlink:href="#Avenir-Book-105"/>
      <use x="1096.299759" xlink:href="#Avenir-Book-110"/>
      <use x="1151.89975" xlink:href="#Avenir-Book-103"/>
      <use x="1212.999741" xlink:href="#Avenir-Book-32"/>
      <use x="1240.799728" xlink:href="#Avenir-Book-86"/>
      <use x="1301.899719" xlink:href="#Avenir-Book-105"/>
      <use x="1325.899704" xlink:href="#Avenir-Book-99"/>
      <use x="1374.099701" xlink:href="#Avenir-Book-116"/>
      <use x="1407.299698" xlink:href="#Avenir-Book-105"/>
      <use x="1431.299683" xlink:href="#Avenir-Book-109"/>
      <use x="1516.499664" xlink:href="#Avenir-Book-115"/>
     </g>
    </g>
   </g>
   <g id="patch_3">
    <path clip-path="url(#pf23c3f0f4b)" d="M 176.348571 630 
L 291.137143 630 
L 291.137143 112.285714 
L 176.348571 112.285714 
z
" style="fill:#a94243;stroke:#ffffff;stroke-linejoin:miter;"/>
   </g>
   <g id="patch_4">
    <path clip-path="url(#pf23c3f0f4b)" d="M 319.834286 630 
L 434.622857 630 
L 434.622857 308.837292 
L 319.834286 308.837292 
z
" style="fill:#d48a75;stroke:#ffffff;stroke-linejoin:miter;"/>
   </g>
   <g id="patch_5">
    <path clip-path="url(#pf23c3f0f4b)" d="M 463.32 630 
L 578.108571 630 
L 578.108571 421.886565 
L 463.32 421.886565 
z
" style="fill:#efcebc;stroke:#ffffff;stroke-linejoin:miter;"/>
   </g>
   <g id="patch_6">
    <path clip-path="url(#pf23c3f0f4b)" d="M 606.805714 630 
L 721.594286 630 
L 721.594286 446.294931 
L 606.805714 446.294931 
z
" style="fill:#c7dce7;stroke:#ffffff;stroke-linejoin:miter;"/>
   </g>
   <g id="patch_7">
    <path clip-path="url(#pf23c3f0f4b)" d="M 750.291429 630 
L 865.08 630 
L 865.08 605.591634 
L 750.291429 605.591634 
z
" style="fill:#78a8c3;stroke:#ffffff;stroke-linejoin:miter;"/>
   </g>
   <g id="patch_8">
    <path clip-path="url(#pf23c3f0f4b)" d="M 893.777143 630 
L 1008.565714 630 
L 1008.565714 613.299539 
L 893.777143 613.299539 
z
" style="fill:#3a70a0;stroke:#ffffff;stroke-linejoin:miter;"/>
   </g>
   <g id="patch_9">
    <path clip-path="url(#pf23c3f0f4b)" d="M 1037.262857 630 
L 1152.051429 630 
L 1152.051429 618.438143 
L 1037.262857 618.438143 
z
" style="fill:#a94243;stroke:#ffffff;stroke-linejoin:miter;"/>
   </g>
   <g id="patch_10">
    <path d="M 162 630 
L 1166.4 630 
" style="fill:none;stroke:#cccccc;stroke-linecap:square;stroke-linejoin:miter;stroke-width:1.25;"/>
   </g>
  </g>
  <g id="text_18">
   <!-- Total Number of Police Shooting Victims by Race, 2019 -->
   <defs>
    <path d="M 32.296875 0 
L 25.09375 0 
L 25.09375 64.203125 
L 1.40625 64.203125 
L 1.40625 70.796875 
L 56 70.796875 
L 56 64.203125 
L 32.296875 64.203125 
z
" id="Avenir-Book-84"/>
    <path d="M 24.59375 8.09375 
L 38.90625 46.796875 
L 46.90625 46.796875 
L 23.5 -12.203125 
Q 21.40625 -17.59375 18.15625 -20.796875 
Q 14.90625 -24 8.796875 -24 
Q 7.296875 -24 5.75 -23.890625 
Q 4.203125 -23.796875 2.703125 -23.296875 
L 3.40625 -16.90625 
Q 5.5 -18 8.40625 -18 
Q 11.90625 -18 13.90625 -15.796875 
Q 15.90625 -13.59375 17.40625 -9.59375 
L 20.796875 -0.59375 
L 1.59375 46.796875 
L 9.90625 46.796875 
z
" id="Avenir-Book-121"/>
    <path d="M 13.203125 -14 
L 6.5 -14 
L 13.203125 9.5 
L 21.296875 9.5 
z
" id="Avenir-Book-44"/>
    <path d="M 43.59375 50.09375 
Q 43.59375 53.5 42.4375 56.296875 
Q 41.296875 59.09375 39.1875 61.09375 
Q 37.09375 63.09375 34.1875 64.25 
Q 31.296875 65.40625 27.796875 65.40625 
Q 24.296875 65.40625 21.390625 64.25 
Q 18.5 63.09375 16.390625 61.09375 
Q 14.296875 59.09375 13.140625 56.296875 
Q 12 53.5 12 50.09375 
Q 12 46.703125 13.140625 43.890625 
Q 14.296875 41.09375 16.390625 39.046875 
Q 18.5 37 21.390625 35.890625 
Q 24.296875 34.796875 27.796875 34.796875 
Q 31.296875 34.796875 34.1875 35.890625 
Q 37.09375 37 39.1875 39.046875 
Q 41.296875 41.09375 42.4375 43.890625 
Q 43.59375 46.703125 43.59375 50.09375 
z
M 36.40625 30.40625 
L 36.203125 30.59375 
Q 34.5 29.40625 31.640625 28.796875 
Q 28.796875 28.203125 26.40625 28.203125 
Q 21.796875 28.203125 17.84375 29.84375 
Q 13.90625 31.5 11 34.390625 
Q 8.09375 37.296875 6.4375 41.296875 
Q 4.796875 45.296875 4.796875 50.09375 
Q 4.796875 55 6.5 59 
Q 8.203125 63 11.296875 65.890625 
Q 14.40625 68.796875 18.59375 70.390625 
Q 22.796875 72 27.796875 72 
Q 32.796875 72 37 70.390625 
Q 41.203125 68.796875 44.296875 65.890625 
Q 47.40625 63 49.09375 59 
Q 50.796875 55 50.796875 50.09375 
Q 50.796875 44.203125 49.046875 39.796875 
Q 47.296875 35.40625 44.703125 31.09375 
L 25.59375 0 
L 17.09375 0 
z
" id="Avenir-Book-57"/>
   </defs>
   <g style="fill:#262626;" transform="translate(339.208984 72)scale(0.25 -0.25)">
    <use xlink:href="#Avenir-Book-84"/>
    <use x="57.228119" xlink:href="#Avenir-Book-111"/>
    <use x="116.528107" xlink:href="#Avenir-Book-116"/>
    <use x="149.728104" xlink:href="#Avenir-Book-97"/>
    <use x="201.628098" xlink:href="#Avenir-Book-108"/>
    <use x="225.628082" xlink:href="#Avenir-Book-32"/>
    <use x="253.42807" xlink:href="#Avenir-Book-78"/>
    <use x="331.228058" xlink:href="#Avenir-Book-117"/>
    <use x="386.828049" xlink:href="#Avenir-Book-109"/>
    <use x="472.02803" xlink:href="#Avenir-Book-98"/>
    <use x="533.128021" xlink:href="#Avenir-Book-101"/>
    <use x="588.728012" xlink:href="#Avenir-Book-114"/>
    <use x="621.928009" xlink:href="#Avenir-Book-32"/>
    <use x="649.727997" xlink:href="#Avenir-Book-111"/>
    <use x="709.027985" xlink:href="#Avenir-Book-102"/>
    <use x="738.627975" xlink:href="#Avenir-Book-32"/>
    <use x="766.427963" xlink:href="#Avenir-Book-80"/>
    <use x="823.827957" xlink:href="#Avenir-Book-111"/>
    <use x="883.127945" xlink:href="#Avenir-Book-108"/>
    <use x="907.12793" xlink:href="#Avenir-Book-105"/>
    <use x="931.127914" xlink:href="#Avenir-Book-99"/>
    <use x="979.327911" xlink:href="#Avenir-Book-101"/>
    <use x="1034.927902" xlink:href="#Avenir-Book-32"/>
    <use x="1062.72789" xlink:href="#Avenir-Book-83"/>
    <use x="1118.327881" xlink:href="#Avenir-Book-104"/>
    <use x="1173.927872" xlink:href="#Avenir-Book-111"/>
    <use x="1233.227859" xlink:href="#Avenir-Book-111"/>
    <use x="1292.527847" xlink:href="#Avenir-Book-116"/>
    <use x="1325.727844" xlink:href="#Avenir-Book-105"/>
    <use x="1349.727829" xlink:href="#Avenir-Book-110"/>
    <use x="1405.32782" xlink:href="#Avenir-Book-103"/>
    <use x="1466.427811" xlink:href="#Avenir-Book-32"/>
    <use x="1494.227798" xlink:href="#Avenir-Book-86"/>
    <use x="1555.327789" xlink:href="#Avenir-Book-105"/>
    <use x="1579.327774" xlink:href="#Avenir-Book-99"/>
    <use x="1627.527771" xlink:href="#Avenir-Book-116"/>
    <use x="1660.727768" xlink:href="#Avenir-Book-105"/>
    <use x="1684.727753" xlink:href="#Avenir-Book-109"/>
    <use x="1769.927734" xlink:href="#Avenir-Book-115"/>
    <use x="1812.527725" xlink:href="#Avenir-Book-32"/>
    <use x="1840.327713" xlink:href="#Avenir-Book-98"/>
    <use x="1901.427704" xlink:href="#Avenir-Book-121"/>
    <use x="1949.627701" xlink:href="#Avenir-Book-32"/>
    <use x="1977.427689" xlink:href="#Avenir-Book-82"/>
    <use x="2036.727676" xlink:href="#Avenir-Book-97"/>
    <use x="2088.62767" xlink:href="#Avenir-Book-99"/>
    <use x="2136.827667" xlink:href="#Avenir-Book-101"/>
    <use x="2192.427658" xlink:href="#Avenir-Book-44"/>
    <use x="2220.227646" xlink:href="#Avenir-Book-32"/>
    <use x="2248.027634" xlink:href="#Avenir-Book-50"/>
    <use x="2303.627625" xlink:href="#Avenir-Book-48"/>
    <use x="2359.227615" xlink:href="#Avenir-Book-49"/>
    <use x="2414.827606" xlink:href="#Avenir-Book-57"/>
   </g>
  </g>
 </g>
 <defs>
  <clipPath id="pf23c3f0f4b">
   <rect height="543.6" width="1004.4" x="162" y="86.4"/>
  </clipPath>
 </defs>
</svg>
